<mxfile host="Electron" agent="Mozilla/5.0 (Windows NT 10.0; Win64; x64) AppleWebKit/537.36 (KHTML, like Gecko) draw.io/28.2.8 Chrome/140.0.7339.240 Electron/38.4.0 Safari/537.36" version="28.2.8">
  <diagram name="Page-1" id="r_aBiDpRuZcN3SuQjWWF">
    <mxGraphModel dx="1783" dy="1051" grid="1" gridSize="10" guides="1" tooltips="1" connect="1" arrows="1" fold="1" page="1" pageScale="1" pageWidth="1654" pageHeight="1169" math="0" shadow="0">
      <root>
        <mxCell id="0" />
        <mxCell id="1" parent="0" />
        <mxCell id="2Ye5FnrKtnP_Uj70Tepu-95" value="&lt;b&gt;Propriete&lt;/b&gt;" style="swimlane;fontStyle=0;childLayout=stackLayout;horizontal=1;startSize=26;fillColor=#FADB75;horizontalStack=0;resizeParent=1;resizeParentMax=0;resizeLast=0;collapsible=1;marginBottom=0;whiteSpace=wrap;html=1;strokeColor=#272629;" vertex="1" parent="1">
          <mxGeometry x="760" y="440" width="160" height="286" as="geometry" />
        </mxCell>
        <mxCell id="2Ye5FnrKtnP_Uj70Tepu-96" value="ProprieteID" style="text;strokeColor=none;fillColor=none;align=left;verticalAlign=top;spacingLeft=4;spacingRight=4;overflow=hidden;rotatable=0;points=[[0,0.5],[1,0.5]];portConstraint=eastwest;whiteSpace=wrap;html=1;" vertex="1" parent="2Ye5FnrKtnP_Uj70Tepu-95">
          <mxGeometry y="26" width="160" height="26" as="geometry" />
        </mxCell>
        <mxCell id="2Ye5FnrKtnP_Uj70Tepu-97" value="TitrePropriete" style="text;strokeColor=none;fillColor=none;align=left;verticalAlign=top;spacingLeft=4;spacingRight=4;overflow=hidden;rotatable=0;points=[[0,0.5],[1,0.5]];portConstraint=eastwest;whiteSpace=wrap;html=1;" vertex="1" parent="2Ye5FnrKtnP_Uj70Tepu-95">
          <mxGeometry y="52" width="160" height="26" as="geometry" />
        </mxCell>
        <mxCell id="2Ye5FnrKtnP_Uj70Tepu-98" value="DescriptionPropriete" style="text;strokeColor=none;fillColor=none;align=left;verticalAlign=top;spacingLeft=4;spacingRight=4;overflow=hidden;rotatable=0;points=[[0,0.5],[1,0.5]];portConstraint=eastwest;whiteSpace=wrap;html=1;" vertex="1" parent="2Ye5FnrKtnP_Uj70Tepu-95">
          <mxGeometry y="78" width="160" height="26" as="geometry" />
        </mxCell>
        <mxCell id="2Ye5FnrKtnP_Uj70Tepu-99" value="ConsommationEnergie" style="text;strokeColor=none;fillColor=none;align=left;verticalAlign=top;spacingLeft=4;spacingRight=4;overflow=hidden;rotatable=0;points=[[0,0.5],[1,0.5]];portConstraint=eastwest;whiteSpace=wrap;html=1;" vertex="1" parent="2Ye5FnrKtnP_Uj70Tepu-95">
          <mxGeometry y="104" width="160" height="26" as="geometry" />
        </mxCell>
        <mxCell id="2Ye5FnrKtnP_Uj70Tepu-100" value="Adresse" style="text;strokeColor=none;fillColor=none;align=left;verticalAlign=top;spacingLeft=4;spacingRight=4;overflow=hidden;rotatable=0;points=[[0,0.5],[1,0.5]];portConstraint=eastwest;whiteSpace=wrap;html=1;" vertex="1" parent="2Ye5FnrKtnP_Uj70Tepu-95">
          <mxGeometry y="130" width="160" height="26" as="geometry" />
        </mxCell>
        <mxCell id="2Ye5FnrKtnP_Uj70Tepu-101" value="SurfaceHabitable" style="text;strokeColor=none;fillColor=none;align=left;verticalAlign=top;spacingLeft=4;spacingRight=4;overflow=hidden;rotatable=0;points=[[0,0.5],[1,0.5]];portConstraint=eastwest;whiteSpace=wrap;html=1;" vertex="1" parent="2Ye5FnrKtnP_Uj70Tepu-95">
          <mxGeometry y="156" width="160" height="26" as="geometry" />
        </mxCell>
        <mxCell id="2Ye5FnrKtnP_Uj70Tepu-102" value="SurfaceTerrain" style="text;strokeColor=none;fillColor=none;align=left;verticalAlign=top;spacingLeft=4;spacingRight=4;overflow=hidden;rotatable=0;points=[[0,0.5],[1,0.5]];portConstraint=eastwest;whiteSpace=wrap;html=1;" vertex="1" parent="2Ye5FnrKtnP_Uj70Tepu-95">
          <mxGeometry y="182" width="160" height="26" as="geometry" />
        </mxCell>
        <mxCell id="2Ye5FnrKtnP_Uj70Tepu-103" value="NombrePieces" style="text;strokeColor=none;fillColor=none;align=left;verticalAlign=top;spacingLeft=4;spacingRight=4;overflow=hidden;rotatable=0;points=[[0,0.5],[1,0.5]];portConstraint=eastwest;whiteSpace=wrap;html=1;" vertex="1" parent="2Ye5FnrKtnP_Uj70Tepu-95">
          <mxGeometry y="208" width="160" height="26" as="geometry" />
        </mxCell>
        <mxCell id="2Ye5FnrKtnP_Uj70Tepu-104" value="AnneeConstruction" style="text;strokeColor=none;fillColor=none;align=left;verticalAlign=top;spacingLeft=4;spacingRight=4;overflow=hidden;rotatable=0;points=[[0,0.5],[1,0.5]];portConstraint=eastwest;whiteSpace=wrap;html=1;" vertex="1" parent="2Ye5FnrKtnP_Uj70Tepu-95">
          <mxGeometry y="234" width="160" height="26" as="geometry" />
        </mxCell>
        <mxCell id="2Ye5FnrKtnP_Uj70Tepu-105" value="ClasseEnergie" style="text;strokeColor=none;fillColor=none;align=left;verticalAlign=top;spacingLeft=4;spacingRight=4;overflow=hidden;rotatable=0;points=[[0,0.5],[1,0.5]];portConstraint=eastwest;whiteSpace=wrap;html=1;" vertex="1" parent="2Ye5FnrKtnP_Uj70Tepu-95">
          <mxGeometry y="260" width="160" height="26" as="geometry" />
        </mxCell>
        <mxCell id="2Ye5FnrKtnP_Uj70Tepu-106" value="&lt;b&gt;TypePropriete&lt;/b&gt;" style="swimlane;fontStyle=0;childLayout=stackLayout;horizontal=1;startSize=26;fillColor=#FADB75;horizontalStack=0;resizeParent=1;resizeParentMax=0;resizeLast=0;collapsible=1;marginBottom=0;whiteSpace=wrap;html=1;strokeColor=#272629;" vertex="1" parent="1">
          <mxGeometry x="1120" y="440" width="160" height="78" as="geometry" />
        </mxCell>
        <mxCell id="2Ye5FnrKtnP_Uj70Tepu-107" value="TypeProprieteID" style="text;strokeColor=none;fillColor=none;align=left;verticalAlign=top;spacingLeft=4;spacingRight=4;overflow=hidden;rotatable=0;points=[[0,0.5],[1,0.5]];portConstraint=eastwest;whiteSpace=wrap;html=1;" vertex="1" parent="2Ye5FnrKtnP_Uj70Tepu-106">
          <mxGeometry y="26" width="160" height="26" as="geometry" />
        </mxCell>
        <mxCell id="2Ye5FnrKtnP_Uj70Tepu-108" value="libelleTypePropriete" style="text;strokeColor=none;fillColor=none;align=left;verticalAlign=top;spacingLeft=4;spacingRight=4;overflow=hidden;rotatable=0;points=[[0,0.5],[1,0.5]];portConstraint=eastwest;whiteSpace=wrap;html=1;" vertex="1" parent="2Ye5FnrKtnP_Uj70Tepu-106">
          <mxGeometry y="52" width="160" height="26" as="geometry" />
        </mxCell>
        <mxCell id="2Ye5FnrKtnP_Uj70Tepu-109" style="edgeStyle=orthogonalEdgeStyle;rounded=0;orthogonalLoop=1;jettySize=auto;html=1;entryX=0;entryY=0.5;entryDx=0;entryDy=0;endArrow=none;endFill=0;" edge="1" parent="1" source="2Ye5FnrKtnP_Uj70Tepu-167" target="2Ye5FnrKtnP_Uj70Tepu-107">
          <mxGeometry relative="1" as="geometry" />
        </mxCell>
        <mxCell id="2Ye5FnrKtnP_Uj70Tepu-110" value="&lt;b&gt;Photo&lt;/b&gt;" style="swimlane;fontStyle=0;childLayout=stackLayout;horizontal=1;startSize=26;fillColor=#FADB75;horizontalStack=0;resizeParent=1;resizeParentMax=0;resizeLast=0;collapsible=1;marginBottom=0;whiteSpace=wrap;html=1;strokeColor=#272629;" vertex="1" parent="1">
          <mxGeometry x="1120" y="622" width="160" height="104" as="geometry" />
        </mxCell>
        <mxCell id="2Ye5FnrKtnP_Uj70Tepu-111" value="PhotoID" style="text;strokeColor=none;fillColor=none;align=left;verticalAlign=top;spacingLeft=4;spacingRight=4;overflow=hidden;rotatable=0;points=[[0,0.5],[1,0.5]];portConstraint=eastwest;whiteSpace=wrap;html=1;" vertex="1" parent="2Ye5FnrKtnP_Uj70Tepu-110">
          <mxGeometry y="26" width="160" height="26" as="geometry" />
        </mxCell>
        <mxCell id="2Ye5FnrKtnP_Uj70Tepu-112" value="PhotoURL" style="text;strokeColor=none;fillColor=none;align=left;verticalAlign=top;spacingLeft=4;spacingRight=4;overflow=hidden;rotatable=0;points=[[0,0.5],[1,0.5]];portConstraint=eastwest;whiteSpace=wrap;html=1;" vertex="1" parent="2Ye5FnrKtnP_Uj70Tepu-110">
          <mxGeometry y="52" width="160" height="26" as="geometry" />
        </mxCell>
        <mxCell id="2Ye5FnrKtnP_Uj70Tepu-113" value="EstPrincipale" style="text;strokeColor=none;fillColor=none;align=left;verticalAlign=top;spacingLeft=4;spacingRight=4;overflow=hidden;rotatable=0;points=[[0,0.5],[1,0.5]];portConstraint=eastwest;whiteSpace=wrap;html=1;" vertex="1" parent="2Ye5FnrKtnP_Uj70Tepu-110">
          <mxGeometry y="78" width="160" height="26" as="geometry" />
        </mxCell>
        <mxCell id="2Ye5FnrKtnP_Uj70Tepu-115" style="edgeStyle=orthogonalEdgeStyle;rounded=0;orthogonalLoop=1;jettySize=auto;html=1;entryX=0;entryY=0.5;entryDx=0;entryDy=0;endArrow=none;endFill=0;" edge="1" parent="1" source="2Ye5FnrKtnP_Uj70Tepu-94" target="2Ye5FnrKtnP_Uj70Tepu-112">
          <mxGeometry relative="1" as="geometry" />
        </mxCell>
        <mxCell id="2Ye5FnrKtnP_Uj70Tepu-146" style="edgeStyle=orthogonalEdgeStyle;rounded=0;orthogonalLoop=1;jettySize=auto;html=1;entryX=1;entryY=0.5;entryDx=0;entryDy=0;endArrow=none;endFill=0;" edge="1" parent="1" source="2Ye5FnrKtnP_Uj70Tepu-179" target="2Ye5FnrKtnP_Uj70Tepu-137">
          <mxGeometry relative="1" as="geometry" />
        </mxCell>
        <mxCell id="2Ye5FnrKtnP_Uj70Tepu-186" style="edgeStyle=orthogonalEdgeStyle;rounded=0;orthogonalLoop=1;jettySize=auto;html=1;entryX=1;entryY=0.5;entryDx=0;entryDy=0;exitX=0.501;exitY=1.005;exitDx=0;exitDy=0;exitPerimeter=0;endArrow=none;endFill=0;" edge="1" parent="1" source="2Ye5FnrKtnP_Uj70Tepu-122" target="2Ye5FnrKtnP_Uj70Tepu-179">
          <mxGeometry relative="1" as="geometry" />
        </mxCell>
        <mxCell id="2Ye5FnrKtnP_Uj70Tepu-116" value="&lt;b&gt;Personne&lt;/b&gt;" style="swimlane;fontStyle=0;childLayout=stackLayout;horizontal=1;startSize=26;fillColor=#FADB75;horizontalStack=0;resizeParent=1;resizeParentMax=0;resizeLast=0;collapsible=1;marginBottom=0;whiteSpace=wrap;html=1;strokeColor=#272629;" vertex="1" parent="1">
          <mxGeometry x="1360" y="479" width="160" height="182" as="geometry" />
        </mxCell>
        <mxCell id="2Ye5FnrKtnP_Uj70Tepu-117" value="PersonneID" style="text;strokeColor=none;fillColor=none;align=left;verticalAlign=top;spacingLeft=4;spacingRight=4;overflow=hidden;rotatable=0;points=[[0,0.5],[1,0.5]];portConstraint=eastwest;whiteSpace=wrap;html=1;" vertex="1" parent="2Ye5FnrKtnP_Uj70Tepu-116">
          <mxGeometry y="26" width="160" height="26" as="geometry" />
        </mxCell>
        <mxCell id="2Ye5FnrKtnP_Uj70Tepu-118" value="PrenomPersonne" style="text;strokeColor=none;fillColor=none;align=left;verticalAlign=top;spacingLeft=4;spacingRight=4;overflow=hidden;rotatable=0;points=[[0,0.5],[1,0.5]];portConstraint=eastwest;whiteSpace=wrap;html=1;" vertex="1" parent="2Ye5FnrKtnP_Uj70Tepu-116">
          <mxGeometry y="52" width="160" height="26" as="geometry" />
        </mxCell>
        <mxCell id="2Ye5FnrKtnP_Uj70Tepu-119" value="NomPersonne" style="text;strokeColor=none;fillColor=none;align=left;verticalAlign=top;spacingLeft=4;spacingRight=4;overflow=hidden;rotatable=0;points=[[0,0.5],[1,0.5]];portConstraint=eastwest;whiteSpace=wrap;html=1;" vertex="1" parent="2Ye5FnrKtnP_Uj70Tepu-116">
          <mxGeometry y="78" width="160" height="26" as="geometry" />
        </mxCell>
        <mxCell id="2Ye5FnrKtnP_Uj70Tepu-120" value="EmailPersonne" style="text;strokeColor=none;fillColor=none;align=left;verticalAlign=top;spacingLeft=4;spacingRight=4;overflow=hidden;rotatable=0;points=[[0,0.5],[1,0.5]];portConstraint=eastwest;whiteSpace=wrap;html=1;" vertex="1" parent="2Ye5FnrKtnP_Uj70Tepu-116">
          <mxGeometry y="104" width="160" height="26" as="geometry" />
        </mxCell>
        <mxCell id="2Ye5FnrKtnP_Uj70Tepu-121" value="NumeroPersonne" style="text;strokeColor=none;fillColor=none;align=left;verticalAlign=top;spacingLeft=4;spacingRight=4;overflow=hidden;rotatable=0;points=[[0,0.5],[1,0.5]];portConstraint=eastwest;whiteSpace=wrap;html=1;" vertex="1" parent="2Ye5FnrKtnP_Uj70Tepu-116">
          <mxGeometry y="130" width="160" height="26" as="geometry" />
        </mxCell>
        <mxCell id="2Ye5FnrKtnP_Uj70Tepu-122" value="Adresse" style="text;strokeColor=none;fillColor=none;align=left;verticalAlign=top;spacingLeft=4;spacingRight=4;overflow=hidden;rotatable=0;points=[[0,0.5],[1,0.5]];portConstraint=eastwest;whiteSpace=wrap;html=1;" vertex="1" parent="2Ye5FnrKtnP_Uj70Tepu-116">
          <mxGeometry y="156" width="160" height="26" as="geometry" />
        </mxCell>
        <mxCell id="2Ye5FnrKtnP_Uj70Tepu-131" style="edgeStyle=orthogonalEdgeStyle;rounded=0;orthogonalLoop=1;jettySize=auto;html=1;entryX=0;entryY=0.5;entryDx=0;entryDy=0;endArrow=none;endFill=0;" edge="1" parent="1" source="2Ye5FnrKtnP_Uj70Tepu-175" target="2Ye5FnrKtnP_Uj70Tepu-100">
          <mxGeometry relative="1" as="geometry" />
        </mxCell>
        <mxCell id="2Ye5FnrKtnP_Uj70Tepu-139" style="edgeStyle=orthogonalEdgeStyle;rounded=0;orthogonalLoop=1;jettySize=auto;html=1;entryX=0.5;entryY=0;entryDx=0;entryDy=0;endArrow=none;endFill=0;" edge="1" parent="1" source="2Ye5FnrKtnP_Uj70Tepu-197" target="2Ye5FnrKtnP_Uj70Tepu-132">
          <mxGeometry relative="1" as="geometry" />
        </mxCell>
        <mxCell id="2Ye5FnrKtnP_Uj70Tepu-156" style="edgeStyle=orthogonalEdgeStyle;rounded=0;orthogonalLoop=1;jettySize=auto;html=1;entryX=0;entryY=0.5;entryDx=0;entryDy=0;endArrow=none;endFill=0;" edge="1" parent="1" source="2Ye5FnrKtnP_Uj70Tepu-189" target="2Ye5FnrKtnP_Uj70Tepu-152">
          <mxGeometry relative="1" as="geometry" />
        </mxCell>
        <mxCell id="2Ye5FnrKtnP_Uj70Tepu-124" value="&lt;b&gt;Dossier&lt;/b&gt;" style="swimlane;fontStyle=0;childLayout=stackLayout;horizontal=1;startSize=26;fillColor=#FADB75;horizontalStack=0;resizeParent=1;resizeParentMax=0;resizeLast=0;collapsible=1;marginBottom=0;whiteSpace=wrap;html=1;strokeColor=#272629;" vertex="1" parent="1">
          <mxGeometry x="400" y="492" width="160" height="182" as="geometry" />
        </mxCell>
        <mxCell id="2Ye5FnrKtnP_Uj70Tepu-125" value="DossierID" style="text;strokeColor=none;fillColor=none;align=left;verticalAlign=top;spacingLeft=4;spacingRight=4;overflow=hidden;rotatable=0;points=[[0,0.5],[1,0.5]];portConstraint=eastwest;whiteSpace=wrap;html=1;" vertex="1" parent="2Ye5FnrKtnP_Uj70Tepu-124">
          <mxGeometry y="26" width="160" height="26" as="geometry" />
        </mxCell>
        <mxCell id="2Ye5FnrKtnP_Uj70Tepu-126" value="TypeDossier" style="text;strokeColor=none;fillColor=none;align=left;verticalAlign=top;spacingLeft=4;spacingRight=4;overflow=hidden;rotatable=0;points=[[0,0.5],[1,0.5]];portConstraint=eastwest;whiteSpace=wrap;html=1;" vertex="1" parent="2Ye5FnrKtnP_Uj70Tepu-124">
          <mxGeometry y="52" width="160" height="26" as="geometry" />
        </mxCell>
        <mxCell id="2Ye5FnrKtnP_Uj70Tepu-127" value="Prix" style="text;strokeColor=none;fillColor=none;align=left;verticalAlign=top;spacingLeft=4;spacingRight=4;overflow=hidden;rotatable=0;points=[[0,0.5],[1,0.5]];portConstraint=eastwest;whiteSpace=wrap;html=1;" vertex="1" parent="2Ye5FnrKtnP_Uj70Tepu-124">
          <mxGeometry y="78" width="160" height="26" as="geometry" />
        </mxCell>
        <mxCell id="2Ye5FnrKtnP_Uj70Tepu-128" value="DateDebutDossier" style="text;strokeColor=none;fillColor=none;align=left;verticalAlign=top;spacingLeft=4;spacingRight=4;overflow=hidden;rotatable=0;points=[[0,0.5],[1,0.5]];portConstraint=eastwest;whiteSpace=wrap;html=1;" vertex="1" parent="2Ye5FnrKtnP_Uj70Tepu-124">
          <mxGeometry y="104" width="160" height="26" as="geometry" />
        </mxCell>
        <mxCell id="2Ye5FnrKtnP_Uj70Tepu-129" value="DateFinDossier" style="text;strokeColor=none;fillColor=none;align=left;verticalAlign=top;spacingLeft=4;spacingRight=4;overflow=hidden;rotatable=0;points=[[0,0.5],[1,0.5]];portConstraint=eastwest;whiteSpace=wrap;html=1;" vertex="1" parent="2Ye5FnrKtnP_Uj70Tepu-124">
          <mxGeometry y="130" width="160" height="26" as="geometry" />
        </mxCell>
        <mxCell id="2Ye5FnrKtnP_Uj70Tepu-130" value="StatutDossier" style="text;strokeColor=none;fillColor=none;align=left;verticalAlign=top;spacingLeft=4;spacingRight=4;overflow=hidden;rotatable=0;points=[[0,0.5],[1,0.5]];portConstraint=eastwest;whiteSpace=wrap;html=1;" vertex="1" parent="2Ye5FnrKtnP_Uj70Tepu-124">
          <mxGeometry y="156" width="160" height="26" as="geometry" />
        </mxCell>
        <mxCell id="2Ye5FnrKtnP_Uj70Tepu-132" value="&lt;b&gt;Evenement&lt;/b&gt;" style="swimlane;fontStyle=0;childLayout=stackLayout;horizontal=1;startSize=26;fillColor=#FADB75;horizontalStack=0;resizeParent=1;resizeParentMax=0;resizeLast=0;collapsible=1;marginBottom=0;whiteSpace=wrap;html=1;strokeColor=#272629;" vertex="1" parent="1">
          <mxGeometry x="400" y="880" width="160" height="182" as="geometry" />
        </mxCell>
        <mxCell id="2Ye5FnrKtnP_Uj70Tepu-133" value="EvenementID" style="text;strokeColor=none;fillColor=none;align=left;verticalAlign=top;spacingLeft=4;spacingRight=4;overflow=hidden;rotatable=0;points=[[0,0.5],[1,0.5]];portConstraint=eastwest;whiteSpace=wrap;html=1;" vertex="1" parent="2Ye5FnrKtnP_Uj70Tepu-132">
          <mxGeometry y="26" width="160" height="26" as="geometry" />
        </mxCell>
        <mxCell id="2Ye5FnrKtnP_Uj70Tepu-134" value="TitreEvenement" style="text;strokeColor=none;fillColor=none;align=left;verticalAlign=top;spacingLeft=4;spacingRight=4;overflow=hidden;rotatable=0;points=[[0,0.5],[1,0.5]];portConstraint=eastwest;whiteSpace=wrap;html=1;" vertex="1" parent="2Ye5FnrKtnP_Uj70Tepu-132">
          <mxGeometry y="52" width="160" height="26" as="geometry" />
        </mxCell>
        <mxCell id="2Ye5FnrKtnP_Uj70Tepu-135" value="NotesEvenement" style="text;strokeColor=none;fillColor=none;align=left;verticalAlign=top;spacingLeft=4;spacingRight=4;overflow=hidden;rotatable=0;points=[[0,0.5],[1,0.5]];portConstraint=eastwest;whiteSpace=wrap;html=1;" vertex="1" parent="2Ye5FnrKtnP_Uj70Tepu-132">
          <mxGeometry y="78" width="160" height="26" as="geometry" />
        </mxCell>
        <mxCell id="2Ye5FnrKtnP_Uj70Tepu-136" value="DateHeureDebutEvenement" style="text;strokeColor=none;fillColor=none;align=left;verticalAlign=top;spacingLeft=4;spacingRight=4;overflow=hidden;rotatable=0;points=[[0,0.5],[1,0.5]];portConstraint=eastwest;whiteSpace=wrap;html=1;" vertex="1" parent="2Ye5FnrKtnP_Uj70Tepu-132">
          <mxGeometry y="104" width="160" height="26" as="geometry" />
        </mxCell>
        <mxCell id="2Ye5FnrKtnP_Uj70Tepu-137" value="DateHeureFinEvenement" style="text;strokeColor=none;fillColor=none;align=left;verticalAlign=top;spacingLeft=4;spacingRight=4;overflow=hidden;rotatable=0;points=[[0,0.5],[1,0.5]];portConstraint=eastwest;whiteSpace=wrap;html=1;" vertex="1" parent="2Ye5FnrKtnP_Uj70Tepu-132">
          <mxGeometry y="130" width="160" height="26" as="geometry" />
        </mxCell>
        <mxCell id="2Ye5FnrKtnP_Uj70Tepu-138" value="StatutEvenement" style="text;strokeColor=none;fillColor=none;align=left;verticalAlign=top;spacingLeft=4;spacingRight=4;overflow=hidden;rotatable=0;points=[[0,0.5],[1,0.5]];portConstraint=eastwest;whiteSpace=wrap;html=1;" vertex="1" parent="2Ye5FnrKtnP_Uj70Tepu-132">
          <mxGeometry y="156" width="160" height="26" as="geometry" />
        </mxCell>
        <mxCell id="2Ye5FnrKtnP_Uj70Tepu-140" value="&lt;b&gt;TypeEvenement&lt;/b&gt;" style="swimlane;fontStyle=0;childLayout=stackLayout;horizontal=1;startSize=26;fillColor=#FADB75;horizontalStack=0;resizeParent=1;resizeParentMax=0;resizeLast=0;collapsible=1;marginBottom=0;whiteSpace=wrap;html=1;strokeColor=#272629;" vertex="1" parent="1">
          <mxGeometry x="760" y="906" width="160" height="78" as="geometry" />
        </mxCell>
        <mxCell id="2Ye5FnrKtnP_Uj70Tepu-141" value="TypeEvenementID" style="text;strokeColor=none;fillColor=none;align=left;verticalAlign=top;spacingLeft=4;spacingRight=4;overflow=hidden;rotatable=0;points=[[0,0.5],[1,0.5]];portConstraint=eastwest;whiteSpace=wrap;html=1;" vertex="1" parent="2Ye5FnrKtnP_Uj70Tepu-140">
          <mxGeometry y="26" width="160" height="26" as="geometry" />
        </mxCell>
        <mxCell id="2Ye5FnrKtnP_Uj70Tepu-142" value="libelleTypeEvenement" style="text;strokeColor=none;fillColor=none;align=left;verticalAlign=top;spacingLeft=4;spacingRight=4;overflow=hidden;rotatable=0;points=[[0,0.5],[1,0.5]];portConstraint=eastwest;whiteSpace=wrap;html=1;" vertex="1" parent="2Ye5FnrKtnP_Uj70Tepu-140">
          <mxGeometry y="52" width="160" height="26" as="geometry" />
        </mxCell>
        <mxCell id="2Ye5FnrKtnP_Uj70Tepu-143" style="edgeStyle=orthogonalEdgeStyle;rounded=0;orthogonalLoop=1;jettySize=auto;html=1;entryX=0;entryY=0.5;entryDx=0;entryDy=0;endArrow=none;endFill=0;exitX=1;exitY=0.5;exitDx=0;exitDy=0;" edge="1" parent="1" source="2Ye5FnrKtnP_Uj70Tepu-177" target="2Ye5FnrKtnP_Uj70Tepu-140">
          <mxGeometry relative="1" as="geometry" />
        </mxCell>
        <mxCell id="2Ye5FnrKtnP_Uj70Tepu-147" value="&lt;b&gt;Agent&lt;/b&gt;" style="swimlane;fontStyle=0;childLayout=stackLayout;horizontal=1;startSize=26;fillColor=#FADB75;horizontalStack=0;resizeParent=1;resizeParentMax=0;resizeLast=0;collapsible=1;marginBottom=0;whiteSpace=wrap;html=1;strokeColor=#272629;" vertex="1" parent="1">
          <mxGeometry x="760" y="58" width="160" height="182" as="geometry" />
        </mxCell>
        <mxCell id="2Ye5FnrKtnP_Uj70Tepu-148" value="AgentID" style="text;strokeColor=none;fillColor=none;align=left;verticalAlign=top;spacingLeft=4;spacingRight=4;overflow=hidden;rotatable=0;points=[[0,0.5],[1,0.5]];portConstraint=eastwest;whiteSpace=wrap;html=1;" vertex="1" parent="2Ye5FnrKtnP_Uj70Tepu-147">
          <mxGeometry y="26" width="160" height="26" as="geometry" />
        </mxCell>
        <mxCell id="2Ye5FnrKtnP_Uj70Tepu-149" value="PrenomAgent" style="text;strokeColor=none;fillColor=none;align=left;verticalAlign=top;spacingLeft=4;spacingRight=4;overflow=hidden;rotatable=0;points=[[0,0.5],[1,0.5]];portConstraint=eastwest;whiteSpace=wrap;html=1;" vertex="1" parent="2Ye5FnrKtnP_Uj70Tepu-147">
          <mxGeometry y="52" width="160" height="26" as="geometry" />
        </mxCell>
        <mxCell id="2Ye5FnrKtnP_Uj70Tepu-150" value="NomAgent" style="text;strokeColor=none;fillColor=none;align=left;verticalAlign=top;spacingLeft=4;spacingRight=4;overflow=hidden;rotatable=0;points=[[0,0.5],[1,0.5]];portConstraint=eastwest;whiteSpace=wrap;html=1;" vertex="1" parent="2Ye5FnrKtnP_Uj70Tepu-147">
          <mxGeometry y="78" width="160" height="26" as="geometry" />
        </mxCell>
        <mxCell id="2Ye5FnrKtnP_Uj70Tepu-151" value="NumeroAgent" style="text;strokeColor=none;fillColor=none;align=left;verticalAlign=top;spacingLeft=4;spacingRight=4;overflow=hidden;rotatable=0;points=[[0,0.5],[1,0.5]];portConstraint=eastwest;whiteSpace=wrap;html=1;" vertex="1" parent="2Ye5FnrKtnP_Uj70Tepu-147">
          <mxGeometry y="104" width="160" height="26" as="geometry" />
        </mxCell>
        <mxCell id="2Ye5FnrKtnP_Uj70Tepu-152" value="EmailAgent" style="text;strokeColor=none;fillColor=none;align=left;verticalAlign=top;spacingLeft=4;spacingRight=4;overflow=hidden;rotatable=0;points=[[0,0.5],[1,0.5]];portConstraint=eastwest;whiteSpace=wrap;html=1;" vertex="1" parent="2Ye5FnrKtnP_Uj70Tepu-147">
          <mxGeometry y="130" width="160" height="26" as="geometry" />
        </mxCell>
        <mxCell id="2Ye5FnrKtnP_Uj70Tepu-153" value="MotDePasseAgent" style="text;strokeColor=none;fillColor=none;align=left;verticalAlign=top;spacingLeft=4;spacingRight=4;overflow=hidden;rotatable=0;points=[[0,0.5],[1,0.5]];portConstraint=eastwest;whiteSpace=wrap;html=1;" vertex="1" parent="2Ye5FnrKtnP_Uj70Tepu-147">
          <mxGeometry y="156" width="160" height="26" as="geometry" />
        </mxCell>
        <mxCell id="2Ye5FnrKtnP_Uj70Tepu-166" value="" style="edgeStyle=orthogonalEdgeStyle;rounded=0;orthogonalLoop=1;jettySize=auto;html=1;entryX=0;entryY=0.5;entryDx=0;entryDy=0;endArrow=none;endFill=0;" edge="1" parent="1" source="2Ye5FnrKtnP_Uj70Tepu-104" target="2Ye5FnrKtnP_Uj70Tepu-94">
          <mxGeometry relative="1" as="geometry">
            <mxPoint x="920" y="687" as="sourcePoint" />
            <mxPoint x="1120" y="687" as="targetPoint" />
          </mxGeometry>
        </mxCell>
        <mxCell id="2Ye5FnrKtnP_Uj70Tepu-94" value="Appartenir" style="rounded=1;whiteSpace=wrap;html=1;arcSize=40;fillColor=light-dark(#fadb75, #281d00);strokeColor=light-dark(#272629, #6d5100);" vertex="1" parent="1">
          <mxGeometry x="980" y="667" width="80" height="40" as="geometry" />
        </mxCell>
        <mxCell id="2Ye5FnrKtnP_Uj70Tepu-168" value="" style="edgeStyle=orthogonalEdgeStyle;rounded=0;orthogonalLoop=1;jettySize=auto;html=1;entryX=0;entryY=0.5;entryDx=0;entryDy=0;endArrow=none;endFill=0;" edge="1" parent="1" source="2Ye5FnrKtnP_Uj70Tepu-96" target="2Ye5FnrKtnP_Uj70Tepu-167">
          <mxGeometry relative="1" as="geometry">
            <mxPoint x="920" y="479" as="sourcePoint" />
            <mxPoint x="1120" y="479" as="targetPoint" />
          </mxGeometry>
        </mxCell>
        <mxCell id="2Ye5FnrKtnP_Uj70Tepu-167" value="Appartenir" style="rounded=1;whiteSpace=wrap;html=1;arcSize=40;fillColor=light-dark(#fadb75, #281d00);strokeColor=light-dark(#272629, #6d5100);" vertex="1" parent="1">
          <mxGeometry x="980" y="459" width="80" height="40" as="geometry" />
        </mxCell>
        <mxCell id="2Ye5FnrKtnP_Uj70Tepu-173" value="" style="edgeStyle=orthogonalEdgeStyle;rounded=0;orthogonalLoop=1;jettySize=auto;html=1;entryX=0;entryY=0.5;entryDx=0;entryDy=0;endArrow=none;endFill=0;" edge="1" parent="1" target="2Ye5FnrKtnP_Uj70Tepu-171">
          <mxGeometry relative="1" as="geometry">
            <mxPoint x="920" y="570" as="sourcePoint" />
            <mxPoint x="1360" y="570" as="targetPoint" />
            <Array as="points" />
          </mxGeometry>
        </mxCell>
        <mxCell id="2Ye5FnrKtnP_Uj70Tepu-174" style="edgeStyle=orthogonalEdgeStyle;rounded=0;orthogonalLoop=1;jettySize=auto;html=1;entryX=0;entryY=0.5;entryDx=0;entryDy=0;endArrow=none;endFill=0;" edge="1" parent="1" source="2Ye5FnrKtnP_Uj70Tepu-171" target="2Ye5FnrKtnP_Uj70Tepu-119">
          <mxGeometry relative="1" as="geometry" />
        </mxCell>
        <mxCell id="2Ye5FnrKtnP_Uj70Tepu-171" value="Appartenir" style="rounded=1;whiteSpace=wrap;html=1;arcSize=40;fillColor=light-dark(#fadb75, #281d00);strokeColor=light-dark(#272629, #6d5100);" vertex="1" parent="1">
          <mxGeometry x="1100" y="550" width="80" height="40" as="geometry" />
        </mxCell>
        <mxCell id="2Ye5FnrKtnP_Uj70Tepu-176" value="" style="edgeStyle=orthogonalEdgeStyle;rounded=0;orthogonalLoop=1;jettySize=auto;html=1;entryX=0;entryY=0.5;entryDx=0;entryDy=0;endArrow=none;endFill=0;" edge="1" parent="1" source="2Ye5FnrKtnP_Uj70Tepu-124" target="2Ye5FnrKtnP_Uj70Tepu-175">
          <mxGeometry relative="1" as="geometry">
            <mxPoint x="560" y="583" as="sourcePoint" />
            <mxPoint x="760" y="583" as="targetPoint" />
          </mxGeometry>
        </mxCell>
        <mxCell id="2Ye5FnrKtnP_Uj70Tepu-175" value="Appartenir" style="rounded=1;whiteSpace=wrap;html=1;arcSize=40;fillColor=light-dark(#fadb75, #281d00);strokeColor=light-dark(#272629, #6d5100);" vertex="1" parent="1">
          <mxGeometry x="620" y="563" width="80" height="40" as="geometry" />
        </mxCell>
        <mxCell id="2Ye5FnrKtnP_Uj70Tepu-178" value="" style="edgeStyle=orthogonalEdgeStyle;rounded=0;orthogonalLoop=1;jettySize=auto;html=1;entryX=0;entryY=0.5;entryDx=0;entryDy=0;endArrow=none;endFill=0;exitX=1;exitY=0.5;exitDx=0;exitDy=0;" edge="1" parent="1" source="2Ye5FnrKtnP_Uj70Tepu-134" target="2Ye5FnrKtnP_Uj70Tepu-177">
          <mxGeometry relative="1" as="geometry">
            <mxPoint x="560" y="945" as="sourcePoint" />
            <mxPoint x="760" y="945" as="targetPoint" />
          </mxGeometry>
        </mxCell>
        <mxCell id="2Ye5FnrKtnP_Uj70Tepu-177" value="Appartenir" style="rounded=1;whiteSpace=wrap;html=1;arcSize=40;fillColor=light-dark(#fadb75, #281d00);strokeColor=light-dark(#272629, #6d5100);" vertex="1" parent="1">
          <mxGeometry x="620" y="925" width="80" height="40" as="geometry" />
        </mxCell>
        <mxCell id="2Ye5FnrKtnP_Uj70Tepu-179" value="Appartenir" style="rounded=1;whiteSpace=wrap;html=1;arcSize=40;fillColor=light-dark(#fadb75, #281d00);strokeColor=light-dark(#272629, #6d5100);" vertex="1" parent="1">
          <mxGeometry x="1100" y="1003" width="80" height="40" as="geometry" />
        </mxCell>
        <mxCell id="2Ye5FnrKtnP_Uj70Tepu-191" style="edgeStyle=orthogonalEdgeStyle;rounded=0;orthogonalLoop=1;jettySize=auto;html=1;entryX=0.25;entryY=0;entryDx=0;entryDy=0;endArrow=none;endFill=0;" edge="1" parent="1" source="2Ye5FnrKtnP_Uj70Tepu-189" target="2Ye5FnrKtnP_Uj70Tepu-124">
          <mxGeometry relative="1" as="geometry" />
        </mxCell>
        <mxCell id="2Ye5FnrKtnP_Uj70Tepu-189" value="Appartenir" style="rounded=1;whiteSpace=wrap;html=1;arcSize=40;fillColor=light-dark(#fadb75, #281d00);strokeColor=light-dark(#272629, #6d5100);rotation=90;" vertex="1" parent="1">
          <mxGeometry x="400" y="327" width="80" height="40" as="geometry" />
        </mxCell>
        <mxCell id="2Ye5FnrKtnP_Uj70Tepu-194" value="" style="edgeStyle=orthogonalEdgeStyle;rounded=0;orthogonalLoop=1;jettySize=auto;html=1;exitX=0;exitY=0.5;exitDx=0;exitDy=0;entryX=1;entryY=0.5;entryDx=0;entryDy=0;endArrow=none;endFill=0;" edge="1" parent="1" source="2Ye5FnrKtnP_Uj70Tepu-134" target="2Ye5FnrKtnP_Uj70Tepu-192">
          <mxGeometry relative="1" as="geometry">
            <mxPoint x="400" y="945" as="sourcePoint" />
            <mxPoint x="760" y="97" as="targetPoint" />
            <Array as="points">
              <mxPoint x="280" y="945" />
            </Array>
          </mxGeometry>
        </mxCell>
        <mxCell id="2Ye5FnrKtnP_Uj70Tepu-195" style="edgeStyle=orthogonalEdgeStyle;rounded=0;orthogonalLoop=1;jettySize=auto;html=1;entryX=0;entryY=0.5;entryDx=0;entryDy=0;endArrow=none;endFill=0;" edge="1" parent="1" source="2Ye5FnrKtnP_Uj70Tepu-192" target="2Ye5FnrKtnP_Uj70Tepu-148">
          <mxGeometry relative="1" as="geometry" />
        </mxCell>
        <mxCell id="2Ye5FnrKtnP_Uj70Tepu-192" value="Appartenir" style="rounded=1;whiteSpace=wrap;html=1;arcSize=40;fillColor=light-dark(#fadb75, #281d00);strokeColor=light-dark(#272629, #6d5100);rotation=90;" vertex="1" parent="1">
          <mxGeometry x="240" y="510" width="80" height="40" as="geometry" />
        </mxCell>
        <mxCell id="2Ye5FnrKtnP_Uj70Tepu-196" value="Modéle entité-association&lt;div&gt;Version 2.0.0&amp;nbsp;&lt;/div&gt;" style="html=1;whiteSpace=wrap;fillColor=light-dark(#fadb75, #ededed);strokeColor=light-dark(#272629, #ededed);" vertex="1" parent="1">
          <mxGeometry x="1240" y="58" width="280" height="50" as="geometry" />
        </mxCell>
        <mxCell id="2Ye5FnrKtnP_Uj70Tepu-198" value="" style="edgeStyle=orthogonalEdgeStyle;rounded=0;orthogonalLoop=1;jettySize=auto;html=1;entryX=0;entryY=0.5;entryDx=0;entryDy=0;endArrow=none;endFill=0;" edge="1" parent="1" source="2Ye5FnrKtnP_Uj70Tepu-124" target="2Ye5FnrKtnP_Uj70Tepu-197">
          <mxGeometry relative="1" as="geometry">
            <mxPoint x="480" y="674" as="sourcePoint" />
            <mxPoint x="480" y="880" as="targetPoint" />
          </mxGeometry>
        </mxCell>
        <mxCell id="2Ye5FnrKtnP_Uj70Tepu-197" value="Appartenir" style="rounded=1;whiteSpace=wrap;html=1;arcSize=40;fillColor=light-dark(#fadb75, #281d00);strokeColor=light-dark(#272629, #6d5100);rotation=90;" vertex="1" parent="1">
          <mxGeometry x="440" y="756" width="80" height="40" as="geometry" />
        </mxCell>
        <mxCell id="2Ye5FnrKtnP_Uj70Tepu-199" value="&amp;nbsp;1-1" style="text;html=1;whiteSpace=wrap;strokeColor=none;fillColor=none;align=center;verticalAlign=middle;rounded=0;" vertex="1" parent="1">
          <mxGeometry x="920" y="460" width="60" height="19" as="geometry" />
        </mxCell>
        <mxCell id="2Ye5FnrKtnP_Uj70Tepu-201" value="0-N" style="text;html=1;whiteSpace=wrap;strokeColor=none;fillColor=none;align=center;verticalAlign=middle;rounded=0;" vertex="1" parent="1">
          <mxGeometry x="1060" y="460" width="60" height="19" as="geometry" />
        </mxCell>
        <mxCell id="2Ye5FnrKtnP_Uj70Tepu-202" value="1-1" style="text;html=1;whiteSpace=wrap;strokeColor=none;fillColor=none;align=center;verticalAlign=middle;rounded=0;" vertex="1" parent="1">
          <mxGeometry x="990" y="550" width="60" height="19" as="geometry" />
        </mxCell>
        <mxCell id="2Ye5FnrKtnP_Uj70Tepu-203" value="0-N" style="text;html=1;whiteSpace=wrap;strokeColor=none;fillColor=none;align=center;verticalAlign=middle;rounded=0;" vertex="1" parent="1">
          <mxGeometry x="1240" y="550" width="60" height="19" as="geometry" />
        </mxCell>
        <mxCell id="2Ye5FnrKtnP_Uj70Tepu-204" value="0-N" style="text;html=1;whiteSpace=wrap;strokeColor=none;fillColor=none;align=center;verticalAlign=middle;rounded=0;" vertex="1" parent="1">
          <mxGeometry x="920" y="667" width="60" height="19" as="geometry" />
        </mxCell>
        <mxCell id="2Ye5FnrKtnP_Uj70Tepu-207" value="1-1" style="text;html=1;whiteSpace=wrap;strokeColor=none;fillColor=none;align=center;verticalAlign=middle;rounded=0;" vertex="1" parent="1">
          <mxGeometry x="1060" y="667" width="60" height="19" as="geometry" />
        </mxCell>
        <mxCell id="2Ye5FnrKtnP_Uj70Tepu-208" value="0-N" style="text;html=1;whiteSpace=wrap;strokeColor=none;fillColor=none;align=center;verticalAlign=middle;rounded=0;rotation=90;" vertex="1" parent="1">
          <mxGeometry x="1250" y="832.5" width="365" height="19" as="geometry" />
        </mxCell>
        <mxCell id="2Ye5FnrKtnP_Uj70Tepu-209" value="0-1" style="text;html=1;whiteSpace=wrap;strokeColor=none;fillColor=none;align=center;verticalAlign=middle;rounded=0;rotation=0;" vertex="1" parent="1">
          <mxGeometry x="800" y="1003" width="60" height="19" as="geometry" />
        </mxCell>
        <mxCell id="2Ye5FnrKtnP_Uj70Tepu-210" value="1-1" style="text;html=1;whiteSpace=wrap;strokeColor=none;fillColor=none;align=center;verticalAlign=middle;rounded=0;rotation=0;" vertex="1" parent="1">
          <mxGeometry x="560" y="925" width="60" height="19" as="geometry" />
        </mxCell>
        <mxCell id="2Ye5FnrKtnP_Uj70Tepu-213" value="0-N" style="text;html=1;whiteSpace=wrap;strokeColor=none;fillColor=none;align=center;verticalAlign=middle;rounded=0;rotation=0;" vertex="1" parent="1">
          <mxGeometry x="700" y="925" width="60" height="19" as="geometry" />
        </mxCell>
        <mxCell id="2Ye5FnrKtnP_Uj70Tepu-216" value="0-N" style="text;html=1;whiteSpace=wrap;strokeColor=none;fillColor=none;align=center;verticalAlign=middle;rounded=0;rotation=90;" vertex="1" parent="1">
          <mxGeometry x="460" y="695" width="60" height="19" as="geometry" />
        </mxCell>
        <mxCell id="2Ye5FnrKtnP_Uj70Tepu-217" value="1-1" style="text;html=1;whiteSpace=wrap;strokeColor=none;fillColor=none;align=center;verticalAlign=middle;rounded=0;rotation=90;" vertex="1" parent="1">
          <mxGeometry x="460" y="840" width="60" height="19" as="geometry" />
        </mxCell>
        <mxCell id="2Ye5FnrKtnP_Uj70Tepu-220" value="&amp;nbsp;1-1" style="text;html=1;whiteSpace=wrap;strokeColor=none;fillColor=none;align=center;verticalAlign=middle;rounded=0;" vertex="1" parent="1">
          <mxGeometry x="560" y="563" width="60" height="19" as="geometry" />
        </mxCell>
        <mxCell id="2Ye5FnrKtnP_Uj70Tepu-221" value="0-N" style="text;html=1;whiteSpace=wrap;strokeColor=none;fillColor=none;align=center;verticalAlign=middle;rounded=0;" vertex="1" parent="1">
          <mxGeometry x="700" y="563" width="60" height="19" as="geometry" />
        </mxCell>
        <mxCell id="2Ye5FnrKtnP_Uj70Tepu-225" value="0-N" style="text;html=1;whiteSpace=wrap;strokeColor=none;fillColor=none;align=center;verticalAlign=middle;rounded=0;" vertex="1" parent="1">
          <mxGeometry x="520" y="320" width="390" height="19" as="geometry" />
        </mxCell>
        <mxCell id="2Ye5FnrKtnP_Uj70Tepu-226" value="0-N" style="text;html=1;whiteSpace=wrap;strokeColor=none;fillColor=none;align=center;verticalAlign=middle;rounded=0;" vertex="1" parent="1">
          <mxGeometry x="1010" y="320" width="390" height="19" as="geometry" />
        </mxCell>
        <mxCell id="2Ye5FnrKtnP_Uj70Tepu-227" value="" style="edgeStyle=orthogonalEdgeStyle;rounded=0;orthogonalLoop=1;jettySize=auto;html=1;exitX=0.75;exitY=0;exitDx=0;exitDy=0;entryX=0;entryY=0.5;entryDx=0;entryDy=0;endArrow=none;endFill=0;" edge="1" parent="1" source="2Ye5FnrKtnP_Uj70Tepu-124" target="2Ye5FnrKtnP_Uj70Tepu-224">
          <mxGeometry relative="1" as="geometry">
            <mxPoint x="520" y="492" as="sourcePoint" />
            <mxPoint x="1400" y="479" as="targetPoint" />
            <Array as="points" />
          </mxGeometry>
        </mxCell>
        <mxCell id="2Ye5FnrKtnP_Uj70Tepu-228" style="edgeStyle=orthogonalEdgeStyle;rounded=0;orthogonalLoop=1;jettySize=auto;html=1;entryX=0.25;entryY=0;entryDx=0;entryDy=0;endArrow=none;endFill=0;" edge="1" parent="1" source="2Ye5FnrKtnP_Uj70Tepu-224" target="2Ye5FnrKtnP_Uj70Tepu-116">
          <mxGeometry relative="1" as="geometry" />
        </mxCell>
        <mxCell id="2Ye5FnrKtnP_Uj70Tepu-224" value="Appartenir" style="rounded=1;whiteSpace=wrap;html=1;arcSize=40;fillColor=light-dark(#fadb75, #281d00);strokeColor=light-dark(#272629, #6d5100);" vertex="1" parent="1">
          <mxGeometry x="920" y="320" width="80" height="40" as="geometry" />
        </mxCell>
        <mxCell id="2Ye5FnrKtnP_Uj70Tepu-229" value="0-N" style="text;html=1;whiteSpace=wrap;strokeColor=none;fillColor=none;align=center;verticalAlign=middle;rounded=0;rotation=90;" vertex="1" parent="1">
          <mxGeometry x="397.5" y="244.5" width="105" height="19" as="geometry" />
        </mxCell>
        <mxCell id="2Ye5FnrKtnP_Uj70Tepu-231" value="1-1" style="text;html=1;whiteSpace=wrap;strokeColor=none;fillColor=none;align=center;verticalAlign=middle;rounded=0;rotation=90;" vertex="1" parent="1">
          <mxGeometry x="397.5" y="430" width="105" height="19" as="geometry" />
        </mxCell>
        <mxCell id="2Ye5FnrKtnP_Uj70Tepu-232" value="0-N" style="text;html=1;whiteSpace=wrap;strokeColor=none;fillColor=none;align=center;verticalAlign=middle;rounded=0;rotation=90;" vertex="1" parent="1">
          <mxGeometry x="96.25" y="283.75" width="386.5" height="19" as="geometry" />
        </mxCell>
        <mxCell id="2Ye5FnrKtnP_Uj70Tepu-233" value="1-N" style="text;html=1;whiteSpace=wrap;strokeColor=none;fillColor=none;align=center;verticalAlign=middle;rounded=0;rotation=90;" vertex="1" parent="1">
          <mxGeometry x="96.25" y="756" width="386.5" height="19" as="geometry" />
        </mxCell>
      </root>
    </mxGraphModel>
  </diagram>
</mxfile>
